<?xml version="1.0" encoding="utf-8"?>
<svg width="146px" height="76px" viewBox="0 0 146 76" version="1.1" xmlns:xlink="http://www.w3.org/1999/xlink" xmlns="http://www.w3.org/2000/svg">
  <desc>Created with Lunacy</desc>
  <g id="Group-Copy-11">
    <path d="M14.86 0L9.98 7.63L5.11 0L0 0L0 17.45L5.61 17.45L5.61 9.45L8.48 13.91L11.5 13.91L14.36 9.47L14.36 17.45L19.97 17.45L19.97 0L14.86 0Z" transform="translate(0.8201 57.9828)" id="Fill-1" fill="#1D1E1C" stroke="none" />
    <g id="Group-24">
      <path d="M6.53 0L12.71 0L19.22 17.45L13.39 17.45L12.64 15.13L6.61 15.13L5.83 17.45L0 17.45L6.53 0ZM9.15 7.25L7.93 10.97L11.34 10.97L10.12 7.25C9.92 6.6 9.75 5.91 9.62 5.01C9.5 5.91 9.32 6.6 9.15 7.25Z" transform="translate(22.0801 57.9825)" id="Fill-2" fill="#1D1E1C" fill-rule="evenodd" stroke="none" />
      <path d="M0 0L7.63 0C12.059 0 15.46 1.54 15.46 6.45C15.46 11.34 12.059 12.89 7.63 12.89L5.76 12.89L5.76 17.45L0 17.45L0 0ZM5.76 8.15L7.58 8.15C8.9 8.15 9.75 7.65 9.75 6.45C9.75 5.23 8.9 4.73 7.58 4.73L5.76 4.73L5.76 8.15Z" transform="translate(42.5903 57.9827)" id="Fill-4" fill="#1D1E1C" fill-rule="evenodd" stroke="none" />
      <path d="M23.8 0L23.8 17.45L18.07 17.45L18.07 5.04L14.77 5.04L14.77 17.45L9.03 17.45L9.03 5.04L5.74 5.04L5.74 17.45L0 17.45L0 0L23.8 0Z" transform="translate(60.7329 57.9811)" id="Fill-6" fill="#1E1E1C" stroke="none" />
      <path d="M13.68 8.65L18.99 0L12.66 0L9.17 6.19L5.76 6.19L5.76 0L0 0L0 17.45L5.76 17.45L5.76 11.22L9.05 11.22L12.76 17.45L19.09 17.45L13.68 8.65Z" transform="translate(0.8199 39.1429)" id="Fill-8" fill="#1D1E1C" stroke="none" />
      <path d="M16.74 0L16.74 17.45L10.98 17.45L10.98 5.04L9.51 5.04L5.98 17.45L0 17.45L4.96 0L16.74 0Z" transform="translate(21.4108 39.1427)" id="Fill-10" fill="#1D1E1C" stroke="none" />
      <path d="M9.87 0L9.87 7.03C9.72 7.1 9.57 7.16 9.4 7.22C8.92 7.38 8.38 7.46 7.88 7.46C6.73 7.46 5.76 7.01 5.76 5.84L5.76 0L0 0L0 6.54C0 10.55 2.62 12.47 6.33 12.47C7.56 12.47 8.78 12.27 9.87 11.92L9.87 17.45L15.63 17.45L15.63 0L9.87 0Z" transform="translate(68.8999 39.143)" id="Fill-12" fill="#1D1E1C" stroke="none" />
      <path d="M9.87 0L9.87 7.03C9.72 7.1 9.57 7.16 9.4 7.21C8.92 7.37 8.38 7.45 7.88 7.45C6.73 7.45 5.76 7 5.76 5.83L5.76 0L0 0L0 6.53C0 10.54 2.62 12.46 6.33 12.46C7.56 12.46 8.78 12.26 9.87 11.91L9.87 17.45L15.63 17.45L15.63 0L9.87 0Z" transform="translate(68.8999 39.1527)" id="Fill-14" fill="#1D1E1C" stroke="none" />
      <path d="M7.16 6.55C8.25 2.76 11.74 0 15.87 0C20.88 0 24.95 4.06 24.95 9.07C24.95 14.08 20.88 18.15 15.87 18.15C11.73 18.15 8.25 15.38 7.16 11.59L5.76 11.59L5.76 17.8L0 17.8L0 0.35L5.76 0.35L5.76 6.55L7.16 6.55ZM12.89 9.07C12.89 10.72 14.22 12.06 15.87 12.06C17.52 12.06 18.86 10.72 18.86 9.07C18.86 7.42 17.52 6.09 15.87 6.09C14.22 6.09 12.89 7.42 12.89 9.07Z" transform="translate(42.4702 38.8027)" id="Fill-16" fill="#1E1E1C" fill-rule="evenodd" stroke="none" />
      <path d="M0.002 2.673L0 0L33.499 0L33.502 2.673L0.002 2.673Z" transform="translate(89.876 72.7595)" id="Fill-18" fill="#1D1E1C" stroke="none" />
      <path d="M44.549 22.275C44.549 34.577 22.274 69.411 22.274 69.411C22.274 69.411 0 34.577 0 22.275C0 9.973 9.972 0 22.274 0C34.576 0 44.549 9.973 44.549 22.275" transform="translate(101.1033 0.6773)" id="Fill-20" fill="#EB6608" stroke="none" />
      <path d="M21.54 6.81L21.54 24.82L13.2 24.82L13.2 17.79L7.81 17.79L7.81 24.82L0 24.82L0 6.81L10.62 0L21.54 6.81Z" transform="translate(112.6101 10.5642)" id="Fill-22" fill="#FFFFFF" stroke="none" />
    </g>
  </g>
</svg>