<svg width="19" height="18" viewBox="0 0 19 18" fill="none" xmlns="http://www.w3.org/2000/svg">
<path fill-rule="evenodd" clip-rule="evenodd" d="M8.5 15C9.32851 15 10 15.6715 10 16.5C10 17.3285 9.32851 18 8.5 18C7.67149 18 7 17.3285 7 16.5C7 15.6715 7.67149 15 8.5 15Z" fill="#1D1E1C"/>
<path fill-rule="evenodd" clip-rule="evenodd" d="M13.5 15C14.3285 15 15 15.6715 15 16.5C15 17.3285 14.3285 18 13.5 18C12.6715 18 12 17.3285 12 16.5C12 15.6715 12.6715 15 13.5 15Z" fill="#1D1E1C"/>
<path d="M1 1H3.54487L6.74953 13.8088L15 14" stroke="#1D1E1C" stroke-width="1.6" stroke-linecap="round" stroke-linejoin="round"/>
<path d="M18 4L16.2992 11H7" stroke="#1D1E1C" stroke-width="1.6" stroke-linecap="round" stroke-linejoin="round"/>
</svg>
