<svg width="15" height="23" viewBox="0 0 15 23" fill="none" xmlns="http://www.w3.org/2000/svg">
<mask id="mask0" mask-type="alpha" maskUnits="userSpaceOnUse" x="0" y="0" width="15" height="22">
<path fill-rule="evenodd" clip-rule="evenodd" d="M0 0.00366211H15V22.0001H0V0.00366211Z" fill="white"/>
</mask>
<g mask="url(#mask0)">
<path fill-rule="evenodd" clip-rule="evenodd" d="M7.5 13.7537C4.73859 13.7537 2.5 11.2912 2.5 8.25366C2.5 5.21611 4.73859 2.75366 7.5 2.75366C10.2614 2.75366 12.5 5.21611 12.5 8.25366C12.5 11.2912 10.2614 13.7537 7.5 13.7537ZM7.5 0.00366211C3.3598 0.00877539 0.00464844 3.69945 0 8.25366C0 14.0665 6.62855 21.4248 6.91074 21.7352C7.23797 22.0884 7.76203 22.0884 8.08926 21.7352C8.37148 21.4248 15 14.0665 15 8.25366C14.9954 3.69945 11.6402 0.00877539 7.5 0.00366211Z" fill="#ED7E2E"/>
</g>
<path fill-rule="evenodd" clip-rule="evenodd" d="M11 7.05277L7.68532 5.05277C7.56868 4.98241 7.43132 4.98241 7.31468 5.05277L4 7.05277L4.37061 7.94728L5.42833 7.30899V10.5C5.42833 10.7761 5.61381 11 5.84264 11H9.15732C9.38619 11 9.57167 10.7761 9.57167 10.5V7.30899L10.6294 7.94728L11 7.05277Z" fill="#ED7E2E"/>
</svg>
