<?xml version="1.0" encoding="utf-8"?>
<svg width="14px" height="14px" viewBox="0 0 14 14" version="1.1" xmlns:xlink="http://www.w3.org/1999/xlink" xmlns="http://www.w3.org/2000/svg">
  <desc>Created with Lunacy</desc>
  <path d="M9.91009 8.73956L13.7431 12.5741C13.9605 12.7809 14.0487 13.0894 13.9735 13.3799C13.8983 13.6704 13.6716 13.8973 13.3811 13.9728C13.0907 14.0482 12.7821 13.9603 12.5751 13.7431L8.74559 9.91156L8.74159 9.91456C7.80387 10.6088 6.6668 10.9811 5.50009 10.9761C2.4667 10.9585 0.0132044 8.50148 9.46502e-05 5.46806C-0.00846493 4.01655 0.563845 2.6219 1.58953 1.59481C2.61522 0.567712 4.00907 -0.00651157 5.46059 5.57178e-05C8.49372 0.0175744 10.947 2.47441 10.9601 5.50756C10.9652 6.66953 10.5972 7.80246 9.91009 8.73956ZM1.09602 5.47207C1.10667 7.89867 3.06943 9.86411 5.49602 9.87807C6.65708 9.88289 7.77189 9.42335 8.59229 8.60174C9.41268 7.78012 9.87057 6.66463 9.86402 5.50357C9.85336 3.07697 7.8906 1.11153 5.46402 1.09757C4.30295 1.09275 3.18814 1.55229 2.36775 2.37391C1.54735 3.19552 1.08947 4.31101 1.09602 5.47207Z" id="Search" fill="#FFFFFF" fill-rule="evenodd" stroke="none" />
</svg>